<mxfile host="app.diagrams.net" modified="2021-07-21T06:54:37.249Z" agent="5.0 (X11; Linux x86_64) AppleWebKit/537.36 (KHTML, like Gecko) Chrome/91.0.4472.164 Safari/537.36" etag="ocdoHcuqKOEOQq3oS2Tm" version="14.9.0" type="github">
  <diagram name="Page-1" id="c7558073-3199-34d8-9f00-42111426c3f3">
    <mxGraphModel dx="1927" dy="1675" grid="1" gridSize="10" guides="1" tooltips="1" connect="1" arrows="1" fold="1" page="1" pageScale="1" pageWidth="826" pageHeight="1169" background="none" math="0" shadow="0">
      <root>
        <mxCell id="0" />
        <mxCell id="1" parent="0" />
        <mxCell id="EFjPoxZRbpVjQXiWPNsy-106" style="edgeStyle=orthogonalEdgeStyle;rounded=0;orthogonalLoop=1;jettySize=auto;html=1;exitX=0.5;exitY=1;exitDx=0;exitDy=0;fontSize=14;" edge="1" parent="1" source="2" target="EFjPoxZRbpVjQXiWPNsy-101">
          <mxGeometry relative="1" as="geometry" />
        </mxCell>
        <mxCell id="2" value="&lt;p style=&quot;margin: 4px 0px 0px; text-align: center; text-decoration: underline; font-size: 14px;&quot;&gt;&lt;strong style=&quot;font-size: 14px;&quot;&gt;CHANGES&lt;br style=&quot;font-size: 14px;&quot;&gt;&lt;/strong&gt;&lt;/p&gt;&lt;p style=&quot;margin: 0px 0px 0px 8px; font-size: 14px;&quot;&gt;&lt;br style=&quot;font-size: 14px;&quot;&gt;first:&amp;nbsp;&lt;span style=&quot;color: rgb(206, 145, 120); background-color: rgb(30, 30, 30); font-family: &amp;quot;droid sans mono&amp;quot;, monospace, monospace, &amp;quot;droid sans fallback&amp;quot;; font-size: 14px; font-weight: normal;&quot;&gt;1000&lt;/span&gt;&lt;/p&gt;&lt;p style=&quot;margin: 0px 0px 0px 8px; font-size: 14px;&quot;&gt;&amp;nbsp;&lt;/p&gt;&lt;p style=&quot;margin: 0px 0px 0px 8px; font-size: 14px;&quot;&gt;orderBy:&lt;span style=&quot;color: rgb(206, 145, 120); background-color: rgb(30, 30, 30); font-family: &amp;quot;droid sans mono&amp;quot;, monospace, monospace, &amp;quot;droid sans fallback&amp;quot;; font-size: 14px; font-weight: normal;&quot;&gt;timestamp&lt;/span&gt;&lt;/p&gt;" style="verticalAlign=middle;align=center;overflow=fill;fontSize=14;fontFamily=Helvetica;html=1;rounded=1;fontStyle=1;strokeWidth=3;fillColor=#E6FFCC" parent="1" vertex="1">
          <mxGeometry x="-29" y="70" width="150" height="90" as="geometry" />
        </mxCell>
        <mxCell id="EFjPoxZRbpVjQXiWPNsy-107" value="" style="edgeStyle=orthogonalEdgeStyle;rounded=0;orthogonalLoop=1;jettySize=auto;html=1;fontSize=14;" edge="1" parent="1" source="3" target="2">
          <mxGeometry relative="1" as="geometry" />
        </mxCell>
        <mxCell id="3" value="https://api.thegraph.com/subgraphs/name/graphitetools/maker" style="whiteSpace=wrap;align=center;verticalAlign=middle;fontStyle=1;strokeWidth=3;fillColor=#FFFFCC;fontSize=14;" parent="1" vertex="1">
          <mxGeometry x="-183.5" y="-30" width="459" height="60" as="geometry" />
        </mxCell>
        <mxCell id="EFjPoxZRbpVjQXiWPNsy-136" value="" style="edgeStyle=orthogonalEdgeStyle;rounded=0;orthogonalLoop=1;jettySize=auto;html=1;fontSize=14;fontColor=#FFF2CC;" edge="1" parent="1" source="EFjPoxZRbpVjQXiWPNsy-99" target="EFjPoxZRbpVjQXiWPNsy-100">
          <mxGeometry relative="1" as="geometry" />
        </mxCell>
        <mxCell id="EFjPoxZRbpVjQXiWPNsy-99" value="https://api.thegraph.com/subgraphs/name/protofire/makerdao-governance" style="whiteSpace=wrap;align=center;verticalAlign=middle;fontStyle=1;strokeWidth=3;fillColor=#FFFFCC;fontSize=14;" vertex="1" parent="1">
          <mxGeometry x="350" y="-30" width="464" height="60" as="geometry" />
        </mxCell>
        <mxCell id="EFjPoxZRbpVjQXiWPNsy-100" value="&lt;p style=&quot;margin: 4px 0px 0px ; text-align: center ; text-decoration: underline ; font-size: 14px&quot;&gt;&lt;strong style=&quot;font-size: 14px&quot;&gt;CHANGES&lt;br style=&quot;font-size: 14px&quot;&gt;&lt;/strong&gt;&lt;/p&gt;&lt;p style=&quot;margin: 0px 0px 0px 8px ; font-size: 14px&quot;&gt;&lt;br style=&quot;font-size: 14px&quot;&gt;first:&amp;nbsp;&lt;span style=&quot;color: rgb(206 , 145 , 120) ; background-color: rgb(30 , 30 , 30) ; font-family: &amp;#34;droid sans mono&amp;#34; , monospace , monospace , &amp;#34;droid sans fallback&amp;#34; ; font-size: 14px ; font-weight: normal&quot;&gt;1000&lt;/span&gt;&lt;/p&gt;&lt;p style=&quot;margin: 0px 0px 0px 8px ; font-size: 14px&quot;&gt;&amp;nbsp;&lt;/p&gt;&lt;p style=&quot;margin: 0px 0px 0px 8px ; font-size: 14px&quot;&gt;orderDirection:&amp;nbsp;&lt;span style=&quot;color: rgb(206 , 145 , 120) ; background-color: rgb(30 , 30 , 30) ; font-family: &amp;#34;droid sans mono&amp;#34; , monospace , monospace , &amp;#34;droid sans fallback&amp;#34; ; font-weight: normal&quot;&gt;desc&lt;/span&gt;&lt;/p&gt;&lt;p style=&quot;margin: 0px 0px 0px 8px ; font-size: 14px&quot;&gt;orderBy:&lt;span style=&quot;color: rgb(206 , 145 , 120) ; background-color: rgb(30 , 30 , 30) ; font-family: &amp;#34;droid sans mono&amp;#34; , monospace , monospace , &amp;#34;droid sans fallback&amp;#34; ; font-size: 14px ; font-weight: normal&quot;&gt;timestamp&lt;/span&gt;&lt;/p&gt;" style="verticalAlign=middle;align=center;overflow=fill;fontSize=14;fontFamily=Helvetica;html=1;rounded=1;fontStyle=1;strokeWidth=3;fillColor=#E6FFCC" vertex="1" parent="1">
          <mxGeometry x="485.5" y="70" width="193" height="140" as="geometry" />
        </mxCell>
        <mxCell id="EFjPoxZRbpVjQXiWPNsy-118" value="" style="edgeStyle=orthogonalEdgeStyle;rounded=0;orthogonalLoop=1;jettySize=auto;html=1;fontSize=14;" edge="1" parent="1" source="EFjPoxZRbpVjQXiWPNsy-101" target="EFjPoxZRbpVjQXiWPNsy-117">
          <mxGeometry relative="1" as="geometry" />
        </mxCell>
        <mxCell id="EFjPoxZRbpVjQXiWPNsy-101" value="" style="rounded=1;whiteSpace=wrap;html=1;fillColor=#FFF2CC;fontSize=14;" vertex="1" parent="1">
          <mxGeometry x="-34.25" y="200" width="160.5" height="160" as="geometry" />
        </mxCell>
        <mxCell id="EFjPoxZRbpVjQXiWPNsy-102" value="Remove Repeated Changes*" style="rounded=0;whiteSpace=wrap;html=1;fillColor=#B9E0A5;fontSize=14;" vertex="1" parent="1">
          <mxGeometry x="-13.75" y="210" width="120" height="60" as="geometry" />
        </mxCell>
        <mxCell id="EFjPoxZRbpVjQXiWPNsy-103" value="Group by timespan" style="rounded=1;whiteSpace=wrap;html=1;strokeColor=#000000;fillColor=#B9E0A5;fontSize=14;" vertex="1" parent="1">
          <mxGeometry x="-13.75" y="290" width="120" height="60" as="geometry" />
        </mxCell>
        <mxCell id="EFjPoxZRbpVjQXiWPNsy-130" value="" style="edgeStyle=orthogonalEdgeStyle;rounded=0;orthogonalLoop=1;jettySize=auto;html=1;fontSize=14;fontColor=#FFF2CC;" edge="1" parent="1" source="EFjPoxZRbpVjQXiWPNsy-117" target="EFjPoxZRbpVjQXiWPNsy-128">
          <mxGeometry relative="1" as="geometry" />
        </mxCell>
        <mxCell id="EFjPoxZRbpVjQXiWPNsy-117" value="&lt;div style=&quot;color: rgb(212, 212, 212); background-color: rgb(30, 30, 30); font-family: &amp;quot;droid sans mono&amp;quot;, monospace, monospace, &amp;quot;droid sans fallback&amp;quot;; font-size: 14px; line-height: 19px;&quot;&gt;&lt;span style=&quot;color: rgb(79, 193, 255); font-size: 14px;&quot;&gt;spellMap&lt;/span&gt;&lt;/div&gt;" style="whiteSpace=wrap;html=1;rounded=1;fillColor=#FFF2CC;fontSize=14;" vertex="1" parent="1">
          <mxGeometry x="-14" y="400" width="120" height="60" as="geometry" />
        </mxCell>
        <mxCell id="EFjPoxZRbpVjQXiWPNsy-122" value="" style="edgeStyle=orthogonalEdgeStyle;rounded=0;orthogonalLoop=1;jettySize=auto;html=1;fontColor=#FFF2CC;fontSize=14;" edge="1" parent="1" source="EFjPoxZRbpVjQXiWPNsy-120" target="EFjPoxZRbpVjQXiWPNsy-121">
          <mxGeometry relative="1" as="geometry" />
        </mxCell>
        <mxCell id="EFjPoxZRbpVjQXiWPNsy-120" value="https://cms-gov.makerfoundation.com/content/all-spells?network=mainnet" style="whiteSpace=wrap;align=center;verticalAlign=middle;fontStyle=1;strokeWidth=3;fillColor=#FF3333;strokeColor=none;fontColor=#FFF2CC;fontSize=14;" vertex="1" parent="1">
          <mxGeometry x="-198.25" y="960" width="489" height="60" as="geometry" />
        </mxCell>
        <mxCell id="EFjPoxZRbpVjQXiWPNsy-124" value="" style="edgeStyle=orthogonalEdgeStyle;rounded=0;orthogonalLoop=1;jettySize=auto;html=1;fontColor=#FFF2CC;fontSize=14;" edge="1" parent="1" source="EFjPoxZRbpVjQXiWPNsy-121" target="EFjPoxZRbpVjQXiWPNsy-123">
          <mxGeometry relative="1" as="geometry" />
        </mxCell>
        <mxCell id="EFjPoxZRbpVjQXiWPNsy-121" value="GroupBy&lt;br style=&quot;font-size: 14px;&quot;&gt;&amp;nbsp;&lt;span style=&quot;color: rgb(79, 193, 255); background-color: rgb(30, 30, 30); font-family: &amp;quot;droid sans mono&amp;quot;, monospace, monospace, &amp;quot;droid sans fallback&amp;quot;; font-size: 14px;&quot;&gt;address&lt;/span&gt;&lt;span style=&quot;font-size: 14px;&quot;&gt;&amp;nbsp;&lt;br style=&quot;font-size: 14px;&quot;&gt;(source filed)&lt;/span&gt;" style="rounded=1;whiteSpace=wrap;html=1;strokeColor=#000000;fillColor=#B9E0A5;fontSize=14;" vertex="1" parent="1">
          <mxGeometry x="-13.75" y="840" width="120" height="60" as="geometry" />
        </mxCell>
        <mxCell id="EFjPoxZRbpVjQXiWPNsy-127" value="" style="edgeStyle=orthogonalEdgeStyle;rounded=0;orthogonalLoop=1;jettySize=auto;html=1;fontColor=#FFF2CC;fontSize=14;" edge="1" parent="1" source="EFjPoxZRbpVjQXiWPNsy-123" target="EFjPoxZRbpVjQXiWPNsy-126">
          <mxGeometry relative="1" as="geometry" />
        </mxCell>
        <mxCell id="EFjPoxZRbpVjQXiWPNsy-123" value="FilterBy&lt;br style=&quot;font-size: 14px;&quot;&gt;&lt;div style=&quot;color: rgb(212, 212, 212); background-color: rgb(30, 30, 30); font-family: &amp;quot;droid sans mono&amp;quot;, monospace, monospace, &amp;quot;droid sans fallback&amp;quot;; font-size: 14px; line-height: 19px;&quot;&gt;&lt;span style=&quot;color: rgb(156, 220, 254); font-size: 14px;&quot;&gt;change&lt;/span&gt;.&lt;span style=&quot;color: rgb(156, 220, 254); font-size: 14px;&quot;&gt;timestamp&lt;/span&gt; &amp;gt; &lt;span style=&quot;color: rgb(181, 206, 168); font-size: 14px;&quot;&gt;1607349675&lt;/span&gt;&lt;/div&gt;" style="rounded=1;whiteSpace=wrap;html=1;strokeColor=#000000;fillColor=#B9E0A5;fontSize=14;" vertex="1" parent="1">
          <mxGeometry x="-88.75" y="730" width="270" height="60" as="geometry" />
        </mxCell>
        <mxCell id="EFjPoxZRbpVjQXiWPNsy-129" value="" style="edgeStyle=orthogonalEdgeStyle;rounded=0;orthogonalLoop=1;jettySize=auto;html=1;fontColor=#FFF2CC;fontSize=14;" edge="1" parent="1" source="EFjPoxZRbpVjQXiWPNsy-126" target="EFjPoxZRbpVjQXiWPNsy-128">
          <mxGeometry relative="1" as="geometry" />
        </mxCell>
        <mxCell id="EFjPoxZRbpVjQXiWPNsy-126" value="&lt;div style=&quot;font-family: &amp;quot;droid sans mono&amp;quot;, monospace, monospace, &amp;quot;droid sans fallback&amp;quot;; font-size: 14px; line-height: 19px;&quot;&gt;&lt;span style=&quot;background-color: rgb(255, 255, 255); font-size: 14px;&quot;&gt;newSpellTransactions&lt;/span&gt;&lt;/div&gt;&lt;div style=&quot;font-family: &amp;quot;droid sans mono&amp;quot;, monospace, monospace, &amp;quot;droid sans fallback&amp;quot;; font-size: 14px; line-height: 19px;&quot;&gt;&lt;span style=&quot;background-color: rgb(255, 255, 255); font-size: 14px;&quot;&gt;&lt;br style=&quot;font-size: 14px;&quot;&gt;&lt;/span&gt;&lt;/div&gt;UniqBy&lt;br style=&quot;font-size: 14px;&quot;&gt;&lt;div style=&quot;background-color: rgb(30, 30, 30); font-family: &amp;quot;droid sans mono&amp;quot;, monospace, monospace, &amp;quot;droid sans fallback&amp;quot;; font-size: 14px; line-height: 19px;&quot;&gt;&lt;font color=&quot;#9cdcfe&quot; style=&quot;font-size: 14px;&quot;&gt;txHash&lt;/font&gt;&lt;/div&gt;" style="rounded=1;whiteSpace=wrap;html=1;strokeColor=#000000;fillColor=#B9E0A5;fontSize=14;" vertex="1" parent="1">
          <mxGeometry x="-88.75" y="620" width="270" height="80" as="geometry" />
        </mxCell>
        <mxCell id="EFjPoxZRbpVjQXiWPNsy-135" value="" style="edgeStyle=orthogonalEdgeStyle;rounded=0;orthogonalLoop=1;jettySize=auto;html=1;fontSize=14;fontColor=#FFF2CC;" edge="1" parent="1" source="EFjPoxZRbpVjQXiWPNsy-128" target="EFjPoxZRbpVjQXiWPNsy-134">
          <mxGeometry relative="1" as="geometry" />
        </mxCell>
        <mxCell id="EFjPoxZRbpVjQXiWPNsy-128" value="&lt;font style=&quot;font-size: 14px&quot;&gt;for each&amp;nbsp;&lt;span style=&quot;color: rgb(0 , 0 , 0) ; font-family: &amp;#34;droid sans mono&amp;#34; , monospace , monospace , &amp;#34;droid sans fallback&amp;#34; ; background-color: rgb(255 , 255 , 255) ; font-size: 14px&quot;&gt;newSpellTransactions&lt;/span&gt;&lt;br style=&quot;font-size: 14px&quot;&gt;&amp;nbsp;agregate&amp;nbsp;&lt;br&gt;{...,&lt;br&gt;changes:&lt;span style=&quot;color: rgb(79 , 193 , 255) ; font-family: &amp;#34;droid sans mono&amp;#34; , monospace , monospace , &amp;#34;droid sans fallback&amp;#34; ; background-color: rgb(30 , 30 , 30)&quot;&gt;spellMap[timespan]&lt;/span&gt;&lt;br&gt;&amp;nbsp;}&lt;br&gt;&lt;/font&gt;" style="rounded=1;whiteSpace=wrap;html=1;fontColor=#FFF2CC;strokeColor=#000000;fillColor=#7EA6E0;fontSize=14;" vertex="1" parent="1">
          <mxGeometry x="-93.75" y="495" width="280" height="90" as="geometry" />
        </mxCell>
        <mxCell id="EFjPoxZRbpVjQXiWPNsy-134" value="&lt;span style=&quot;color: rgb(79 , 193 , 255) ; background-color: rgb(30 , 30 , 30) ; font-family: &amp;#34;droid sans mono&amp;#34; , monospace , monospace , &amp;#34;droid sans fallback&amp;#34;&quot;&gt;newSpells&lt;br&gt;&lt;/span&gt;Reverse()" style="rounded=1;whiteSpace=wrap;html=1;strokeColor=#000000;fillColor=#B9E0A5;fontSize=14;" vertex="1" parent="1">
          <mxGeometry x="280" y="510" width="120" height="60" as="geometry" />
        </mxCell>
      </root>
    </mxGraphModel>
  </diagram>
</mxfile>
